<svg width="16" height="16" viewBox="0 0 16 16" fill="#737373" xmlns="http://www.w3.org/2000/svg">
  <g xmlns="http://www.w3.org/2000/svg" transform="matrix(-1 0 0 -1 14 9)">
    <path d="M1.838 13.3345C1.482 13.3325 0.591333 13.3238 -0.355333 13.2858L-0.691333 13.2712C-1.64398 13.2265 -2.596 13.1492 -3.06867 13.0179C-3.69867 12.8406 -4.19333 12.3246 -4.36067 11.67C-4.62733 10.63 -4.66133 8.601 -4.66533 8.10967L-4.666 8.00833V7.89233C-4.66133 7.40099 -4.62733 5.37233 -4.36067 4.33233C-4.19133 3.67567 -3.696 3.15899 -3.06867 2.98433C-2.596 2.853 -1.64398 2.77567 -0.691333 2.731C-0.355333 2.71633 0.536 2.707 1.482 2.705L1.838 2.70433H2.008C2.76133 2.709 -0.39 2.743 0.612667 3.02167C1.242 3.199 1.73733 3.715 1.90467 4.36967C2.17133 5.40967 2.20467 7.43767 2.20867 7.929C2.20467 8.42033 2.17133 10.449 1.90467 11.4883C1.73533 12.144 1.24 12.6617 0.612 12.8363C-0.389333 13.0147 3.76133 13.0487 2.008 13.0527H1.682ZM3.17867 10.0527V5.386C3.17867 5.386 3.178 5.38367 3.178 5.38367L-0.821333 7.717L3.17867 10.0527Z" fill="#737373"/>
  </g>
</svg>
